<?xml version="1.0" encoding="utf-8"?>
<!-- Generator: Adobe Illustrator 25.2.3, SVG Export Plug-In . SVG Version: 6.00 Build 0)  -->
<svg version="1.1" id="Layer_1" xmlns="http://www.w3.org/2000/svg" xmlns:xlink="http://www.w3.org/1999/xlink" x="0px" y="0px"
	 viewBox="0 0 512 512" style="enable-background:new 0 0 512 512;" xml:space="preserve">
<style type="text/css">
	.st0{fill:#E0E0E0;}
	.st1{fill:#FFFFFF;}
	.st2{fill:#07CC66;}
	.st3{fill:#4979FE;}
	.st4{fill:#F5EA0A;}
	.st5{fill:#FE566A;}
	.st6{fill:#4978FA;}
	.st7{fill:#FFCDAB;}
	.st8{fill:#4D4D4D;}
	.st9{fill:#F0582F;}
</style>
<g id="Layer_2_1_">
	<g id="Layer_1-2">
		<path class="st0" d="M374.6,395.5H110.3c-17.7,0-32-14.3-32-32V183.4c0-17.7,14.3-32,32-32h264.3c17.7,0,32,14.3,32,32v180.1
			C406.6,381.1,392.3,395.5,374.6,395.5z"/>
		<path d="M372.4,398.3H112.5c-18.9,0-34.3-15.6-34.3-34.9V183.4c0-19.2,15.4-34.8,34.3-34.8H152v5.7h-39.5
			c-15.8,0-28.6,13.1-28.6,29.1v180.1c0,16.1,12.8,29.1,28.6,29.1h259.9c15.8,0,28.6-13.1,28.6-29.1v-12.8h5.7v12.8
			C406.7,382.7,391.3,398.3,372.4,398.3z"/>
		<path d="M406.7,246.5H401v-63.1c0-16.1-12.8-29.1-28.6-29.1h-37v-5.7h37c18.9,0,34.3,15.6,34.3,34.8L406.7,246.5z"/>
		<path d="M399,457H85.8c-17,0-30.7-13.8-30.7-30.7v-1.1c0-7.6,6.2-13.8,13.8-13.8H416c7.6,0,13.8,6.2,13.8,13.8v1.1
			C429.7,443.2,416,457,399,457z M68.9,417.1c-4.4,0-8,3.6-8,8v1.1c0,13.8,11.2,25,25,25h313.2c13.8,0,25-11.2,25-25v-1.1
			c0-4.5-3.6-8.1-8.1-8l0,0H68.9z"/>
		<rect x="149.9" y="395.5" class="st1" width="21.4" height="18.8"/>
		<path d="M174.1,417.1H147v-24.5h27.1L174.1,417.1z M152.8,411.4h15.7v-13.1h-15.7V411.4z"/>
		<path class="st1" d="M371.6,372.9h-257c-4.5,0-8.2-3.7-8.2-8.2l0,0V177.9c0-4.5,3.7-8.2,8.2-8.2h257c4.5,0,8.2,3.7,8.2,8.2v186.8
			C379.8,369.3,376.2,372.9,371.6,372.9z"/>
		<rect x="325.9" y="395.5" class="st1" width="21.4" height="18.8"/>
		<path d="M350.2,417.1h-27.1v-24.5h27.1V417.1z M328.8,411.4h15.7v-13.1h-15.7L328.8,411.4z"/>
		<path class="st1" d="M449,307v-17.6h-11.4c-0.9-3.4-2.3-6.7-4.1-9.8l8.4-8.4l-12.5-12.5l-8.6,8.6c-2.7-1.6-5.7-2.8-8.8-3.6v-11.4
			h-17.6v11.4c-3.1,0.8-6,2-8.8,3.5l-8.6-8.6l-12.5,12.5l8.4,8.4c-1.9,3-3.3,6.3-4.2,9.8h-11.4V307h11.4c0.8,3.1,2,6,3.6,8.8
			l-7.8,7.8L377,336l7.6-7.6c3,1.9,6.3,3.3,9.8,4.1V344H412v-11.4c3.4-0.9,6.7-2.3,9.8-4.1l7.6,7.6l12.5-12.5l-7.8-7.8
			c1.6-2.7,2.8-5.7,3.5-8.8H449z M403.2,313c-8.2,0-14.8-6.6-14.8-14.8c0-8.2,6.6-14.8,14.8-14.8c8.2,0,14.8,6.6,14.8,14.8
			c0,0,0,0,0,0C418,306.3,411.4,313,403.2,313C403.2,313,403.2,313,403.2,313L403.2,313z"/>
		<path d="M414.8,346.9h-23.3v-12.2c-2.2-0.7-4.4-1.6-6.5-2.7l-8,8l-16.5-16.5l8.3-8.3c-0.9-1.7-1.6-3.5-2.2-5.4h-12.1v-23.3h12.1
			c0.7-2.2,1.6-4.4,2.7-6.4l-8.8-8.8l16.5-16.5l9.1,9.1c1.7-0.9,3.5-1.6,5.4-2.2v-12.1h23.3v12.1c1.8,0.6,3.6,1.3,5.4,2.2l9.1-9.1
			l16.5,16.5l-8.8,8.8c1.1,2.1,2,4.2,2.7,6.4h12.1v23.4h-12.1c-0.6,1.8-1.3,3.6-2.2,5.4l8.3,8.3l-16.5,16.5l-8-8
			c-2.1,1.1-4.2,2-6.5,2.7L414.8,346.9z M397.2,341.2h11.9v-10.8l2.1-0.5c3.2-0.8,6.2-2.1,9-3.8l1.9-1.2l7.1,7.1l8.4-8.4l-7.3-7.3
			l1.1-1.9c1.4-2.5,2.5-5.2,3.3-8l0.5-2.1h10.7v-11.9h-10.8l-0.5-2.1c-0.8-3.2-2.1-6.2-3.8-9l-1.2-1.9l8-7.9l-8.4-8.4l-8.1,8.1
			l-1.9-1.1c-2.5-1.4-5.2-2.5-8-3.3l-2.1-0.5v-10.8h-12V266l-2.1,0.5c-2.8,0.7-5.5,1.8-8,3.3l-1.9,1.1l-8.1-8.1l-8.4,8.4l7.9,7.9
			l-1.2,1.9c-1.7,2.8-3,5.8-3.8,9l-0.5,2.1h-10.8v11.9H371l0.5,2.1c0.7,2.8,1.8,5.5,3.3,8l1.1,1.9l-7.3,7.3l8.4,8.4l7.1-7.1l1.9,1.2
			c2.8,1.7,5.8,3,9,3.8l2.1,0.5L397.2,341.2z M403.2,315.9c-9.8,0-17.7-7.9-17.7-17.7s7.9-17.7,17.7-17.7c9.8,0,17.7,7.9,17.7,17.7
			C420.8,308,412.9,315.8,403.2,315.9L403.2,315.9z M403.2,286.3c-6.6,0-12,5.4-12,12s5.4,12,12,12s12-5.4,12-12
			C415.2,291.6,409.9,286.2,403.2,286.3C403.2,286.2,403.2,286.2,403.2,286.3L403.2,286.3z"/>
		<path class="st2" d="M403.2,326.4c-15.5,0-28.1-12.6-28.1-28.1c0-15.5,12.6-28.1,28.1-28.1c15.5,0,28.1,12.6,28.1,28.1
			c0,0,0,0,0,0C431.3,313.8,418.7,326.3,403.2,326.4z M403.2,275.8c-12.4,0-22.4,10-22.4,22.4s10,22.4,22.4,22.4s22.4-10,22.4-22.4
			C425.6,285.9,415.5,275.8,403.2,275.8z"/>
		<polygon class="st1" points="20.4,56.9 20.4,130.8 87.1,130.8 128.4,176.8 128.4,130.8 145.9,130.8 145.9,56.9 		"/>
		<path d="M131.2,184.2l-45.5-50.5H17.6V54h131.2v79.6h-17.5V184.2z M23.3,127.9h65.1l37.2,41.4v-41.4H143V59.7H23.3V127.9z"/>
		<polygon class="st2" points="32.6,66.3 133.7,66.3 133.7,117.1 113.7,117.1 113.7,136.8 94.9,118 32.6,118 		"/>
		<rect x="47.7" y="75.8" class="st1" width="71" height="8.1"/>
		<rect x="47.7" y="91.7" class="st1" width="46.8" height="8.1"/>
		<path class="st3" d="M351.9,28.6c-7.2,0-13-5.9-13-13.1c0-7.2,5.9-13,13.1-13c7.2,0,13,5.9,13,13.1
			C365,22.8,359.1,28.6,351.9,28.6C351.9,28.6,351.9,28.6,351.9,28.6z M351.9,8.2c-4.1,0-7.4,3.3-7.4,7.4s3.3,7.4,7.4,7.4
			c4.1,0,7.4-3.3,7.4-7.4c0,0,0,0,0,0C359.2,11.5,355.9,8.2,351.9,8.2z"/>
		<circle class="st4" cx="471.8" cy="200" r="10.2"/>
		<circle class="st2" cx="449" cy="385.3" r="10.2"/>
		<circle class="st5" cx="10.2" cy="385.3" r="10.2"/>
		<circle class="st4" cx="32.6" cy="179.9" r="10.2"/>
		
			<rect x="410.7" y="110" transform="matrix(0.7071 -0.7071 0.7071 0.7071 41.5203 325.6288)" class="st2" width="6.2" height="5.5"/>
		
			<rect x="419" y="118.2" transform="matrix(0.7071 -0.7071 0.7071 0.7071 38.0976 333.9115)" class="st2" width="6.2" height="5.5"/>
		
			<rect x="419.4" y="109.6" transform="matrix(0.7071 -0.7071 0.7071 0.7071 43.9483 331.4865)" class="st2" width="5.5" height="6.2"/>
		
			<rect x="411.1" y="117.9" transform="matrix(0.7071 -0.7071 0.7071 0.7071 35.6656 328.0638)" class="st2" width="5.5" height="6.2"/>
		
			<rect x="153.3" y="1.3" transform="matrix(0.7071 -0.7071 0.7071 0.7071 42.9417 111.8186)" class="st2" width="6.2" height="5.5"/>
		
			<rect x="161.6" y="9.6" transform="matrix(0.7071 -0.7071 0.7071 0.7071 39.5119 120.0984)" class="st2" width="6.2" height="5.5"/>
		<rect x="162" y="1" transform="matrix(0.7071 -0.7071 0.7071 0.7071 45.3696 117.6763)" class="st2" width="5.5" height="6.2"/>
		
			<rect x="153.7" y="9.2" transform="matrix(0.7071 -0.7071 0.7071 0.7071 37.0898 114.2407)" class="st2" width="5.5" height="6.2"/>
		
			<rect x="35.5" y="316.6" transform="matrix(0.7071 -0.7071 0.7071 0.7071 -214.4906 120.8755)" class="st6" width="6.2" height="5.5"/>
		
			<rect x="43.8" y="324.9" transform="matrix(0.7071 -0.7071 0.7071 0.7071 -217.9204 129.1553)" class="st6" width="6.2" height="5.5"/>
		
			<rect x="44.2" y="316.2" transform="matrix(0.7071 -0.7071 0.7071 0.7071 -212.0727 126.7232)" class="st6" width="5.5" height="6.2"/>
		
			<rect x="35.9" y="324.5" transform="matrix(0.7071 -0.7071 0.7071 0.7071 -220.3454 123.2905)" class="st6" width="5.5" height="6.2"/>
		
			<rect x="496.5" y="264.4" transform="matrix(0.7071 -0.7071 0.7071 0.7071 -42.598 431.5079)" class="st5" width="6.2" height="5.5"/>
		
			<rect x="504.7" y="272.7" transform="matrix(0.7071 -0.7071 0.7071 0.7071 -46.0278 439.7877)" class="st5" width="6.2" height="5.5"/>
		
			<rect x="505.1" y="264.1" transform="matrix(0.7071 -0.7071 0.7071 0.7071 -40.1801 437.3698)" class="st5" width="5.5" height="6.2"/>
		
			<rect x="496.8" y="272.3" transform="matrix(0.7071 -0.7071 0.7071 0.7071 -48.4557 433.93)" class="st5" width="5.5" height="6.2"/>
		
			<rect x="414.9" y="496.9" transform="matrix(0.7071 -0.7071 0.7071 0.7071 -230.8867 441.8951)" class="st5" width="6.2" height="5.5"/>
		
			<rect x="423.1" y="505.2" transform="matrix(0.7071 -0.7071 0.7071 0.7071 -234.3023 450.1749)" class="st5" width="6.2" height="5.5"/>
		
			<rect x="423.5" y="496.5" transform="matrix(0.7071 -0.7071 0.7071 0.7071 -228.4575 447.7499)" class="st5" width="5.5" height="6.2"/>
		
			<rect x="415.2" y="504.8" transform="matrix(0.7071 -0.7071 0.7071 0.7071 -236.7373 444.3201)" class="st5" width="5.5" height="6.2"/>
		
			<rect x="186.9" y="483.8" transform="matrix(0.7071 -0.7071 0.7071 0.7071 -288.3564 276.8956)" class="st6" width="6.2" height="5.5"/>
		
			<rect x="195.2" y="492.1" transform="matrix(0.7071 -0.7071 0.7071 0.7071 -291.7862 285.1754)" class="st6" width="6.2" height="5.5"/>
		
			<rect x="195.6" y="483.4" transform="matrix(0.7071 -0.7071 0.7071 0.7071 -285.9314 282.7546)" class="st6" width="5.5" height="6.2"/>
		
			<rect x="187.3" y="491.7" transform="matrix(0.7071 -0.7071 0.7071 0.7071 -294.2112 279.3248)" class="st6" width="5.5" height="6.2"/>
		<path class="st4" d="M289.2,178.2h-92c-30.3,0-54.8,24.5-54.8,54.8l0,0v56c0,14.1,11.4,25.5,25.4,25.5c0,0,0,0,0,0h150.7
			c14.1,0,25.5-11.4,25.5-25.4c0,0,0,0,0,0v-56C344,202.7,319.4,178.2,289.2,178.2C289.2,178.2,289.2,178.2,289.2,178.2z"/>
		<path class="st7" d="M250.6,205.8h-13.4c-19,0-32.3-15.4-32.3-34.4l2.4-31.9h74.3l1.3,31.9C283,190.4,269.6,205.8,250.6,205.8z"/>
		<path d="M145.2,286.2h-5.7v-47.3c0-35.1,28.5-63.6,63.6-63.6h0.4l-0.4-18.1l5.7-0.1l0.5,23.9h-6.3c-31.9,0.1-57.8,25.9-57.9,57.9
			V286.2z"/>
		<path d="M346.8,252.4h-5.7v-13.5c0-31.9-25.9-57.8-57.8-57.9l-6.7,0.3v-24.5h5.7v18.6h0.9c35.1,0,63.5,28.4,63.6,63.5V252.4z"/>
		<polygon class="st1" points="267.3,301.3 243.9,322.9 220.6,302.1 235.4,196.7 252.5,196.7 		"/>
		<path d="M244,326.8l-26.4-23.6l15.3-109.4H255l15.3,108.6L244,326.8z M223.6,301l20.3,18.1l20.4-18.9L250,199.5h-12.2L223.6,301z"
			/>
		<polygon class="st5" points="242,203.4 244.3,203.4 256.5,301 243.9,311.4 231.4,301.3 		"/>
		<path class="st7" d="M247.7,177.9h-8.5c-21.6,0-39.2-17.5-39.2-39.1c0,0,0,0,0,0V91.2h86.8v47.6
			C286.8,160.4,269.3,177.9,247.7,177.9z"/>
		<path d="M247.7,180.8h-8.5c-23.2,0-42-18.8-42-42V88.3h92.5v50.5C289.6,162,270.9,180.8,247.7,180.8z M202.9,94v44.8
			c0,20,16.3,36.3,36.3,36.3h8.5c20,0,36.3-16.2,36.3-36.3V94H202.9z"/>
		<path class="st8" d="M287.8,109.7h-64.6c-13,0-23.5-10.5-23.5-23.5V69.3h64.6c13,0,23.5,10.5,23.5,23.5c0,0,0,0,0,0.1V109.7z"/>
		<path d="M290.7,112.5h-67.4c-14.6,0-26.4-11.8-26.4-26.4V66.5h67.4c14.6,0,26.4,11.9,26.4,26.4V112.5z M202.6,72.2v13.9
			c0,11.4,9.3,20.7,20.7,20.7H285V92.9c0-11.4-9.3-20.7-20.7-20.7L202.6,72.2z"/>
		<rect x="185.1" y="104.9" class="st9" width="14.9" height="20.1"/>
		<path d="M202.9,127.8h-20.6V102h20.6V127.8z M188,122.1h9.2v-14.4H188V122.1z"/>
		<rect x="288.7" y="104.9" class="st9" width="14.9" height="20.1"/>
		<path d="M306.5,127.8h-20.6V102h20.6V127.8z M291.6,122.1h9.2v-14.4h-9.2V122.1z"/>
		<polygon points="306.5,153.7 251.2,153.7 251.2,148 300.8,148 300.8,127.4 306.5,127.4 		"/>
	</g>
</g>
</svg>
