<?xml version="1.0" encoding="utf-8"?>
<!-- Generator: Adobe Illustrator 25.2.3, SVG Export Plug-In . SVG Version: 6.00 Build 0)  -->
<svg version="1.1" id="Layer_1" xmlns="http://www.w3.org/2000/svg" xmlns:xlink="http://www.w3.org/1999/xlink" x="0px" y="0px"
	 viewBox="0 0 512 512" style="enable-background:new 0 0 512 512;" xml:space="preserve">
<style type="text/css">
	.st0{fill:#FE566A;}
	.st1{fill:#FFCDAB;}
	.st2{fill:#FFFFFF;}
	.st3{fill:#07CC66;}
	.st4{fill:#4D4D4D;}
	.st5{fill:#F5EA0A;}
	.st6{fill:#08C865;}
	.st7{fill:#4979FE;}
	.st8{fill:#4978FA;}
</style>
<g id="Layer_2_1_">
	<g id="Layer_1-2">
		<path class="st0" d="M208.4,246.1h115.8c39.1,0,70.7,31.6,70.7,70.7c0,0,0,0,0,0v63.2c0,22-17.9,39.9-39.9,39.9H177.6
			c-22,0-39.9-17.9-39.9-39.9v-63.2C137.8,277.7,169.4,246.1,208.4,246.1z"/>
		<path class="st1" d="M275.9,281.3h-17c-24.3,0-41.3-19.7-41.3-44l3.1-40.8h94.8l1.7,40.8C317.1,261.6,300.1,281.3,275.9,281.3z"/>
		<path d="M141.4,383.9h-7.3v-60.3c0-44.8,36.3-81.1,81.1-81.1h0.6l-0.5-23l7.3-0.2l0.6,30.5h-8c-40.8,0-73.8,33.1-73.9,73.9V383.9z
			"/>
		<path d="M398.6,340.8h-7.3v-17.2c0-40.7-33-73.7-73.7-73.9l-7.3,0.5v-31.4h7.3v23.6c44.8,0.1,81,36.4,81.1,81.1V340.8z"/>
		<polygon class="st2" points="297.2,403.1 267.4,430.7 237.6,404.1 256.4,269.6 278.3,269.6 		"/>
		<path d="M267.4,435.6l-33.7-30.1l19.6-139.6h28.2L301,404.4L267.4,435.6z M241.4,402.6l25.9,23.1l26-24.1l-18.1-128.4h-15.6
			L241.4,402.6z"/>
		<polygon class="st3" points="264.8,278.2 267.9,278.2 283.4,402.7 267.2,416 251.4,403.1 		"/>
		<path class="st1" d="M272.1,245.7h-10.8c-27.6,0-49.9-22.4-49.9-49.9V135H322v60.8C322,223.3,299.7,245.7,272.1,245.7z"/>
		<path d="M272.1,249.3h-10.8c-29.6,0-53.5-24-53.6-53.6v-64.4h118v64.4C325.7,225.3,301.7,249.3,272.1,249.3z M215,138.6v57.1
			c0,25.5,20.7,46.3,46.3,46.3h10.8c25.5,0,46.3-20.7,46.3-46.3v-57.1H215z"/>
		<path class="st4" d="M323.3,158.6H241c-16.6,0-30-13.4-30-30l0,0v-21.5h82.4c16.6,0,30,13.4,30,30L323.3,158.6z"/>
		<path d="M327,162.2h-86c-18.6,0-33.7-15.1-33.7-33.7v-25.1h86c18.6,0,33.7,15.1,33.7,33.7V162.2z M214.6,110.8v17.8
			c0,14.6,11.8,26.4,26.4,26.4h78.7v-17.8c0-14.6-11.8-26.4-26.4-26.4L214.6,110.8z"/>
		<rect x="192.3" y="152.5" class="st5" width="19" height="25.6"/>
		<path d="M215,181.8h-26.3v-32.9H215V181.8z M196,174.5h11.7v-18.4H196V174.5z"/>
		<rect x="324.5" y="152.5" class="st5" width="19" height="25.6"/>
		<path d="M347.2,181.8h-26.3v-32.9h26.3V181.8z M328.2,174.5h11.7v-18.4h-11.8L328.2,174.5z"/>
		<polygon points="347.2,214.8 276.7,214.8 276.7,207.5 339.9,207.5 339.9,181.2 347.2,181.2 		"/>
		<path class="st2" d="M501.5,243c-14.3-25.1-46.3-33.9-71.4-19.6c-6.7,3.8-12.4,9-16.8,15.3l-34.4,4.7l24.9,22.9
			c-1.5,28.9,20.8,53.5,49.7,54.9c28.9,1.5,53.5-20.8,54.9-49.7C508.8,261.6,506.4,251.7,501.5,243L501.5,243z"/>
		<path d="M456.1,324.9c-30.9,0-56-25-56.1-55.9c0-0.4,0-0.8,0-1.2l-29.3-27l40.5-5.5c18.6-24.7,53.7-29.7,78.4-11.1
			c24.7,18.6,29.7,53.7,11.1,78.4C490.2,316.7,473.6,325,456.1,324.9L456.1,324.9z M387,245.9l20.4,18.8l-0.1,1.7
			c-1.3,26.9,19.4,49.7,46.3,51c26.9,1.3,49.7-19.4,51-46.3c0.4-9.2-1.7-18.4-6.3-26.4l0,0c-13.3-23.4-43.1-31.5-66.5-18.2
			c-6.2,3.5-11.5,8.4-15.6,14.2l-0.9,1.3L387,245.9z"/>
		<circle class="st3" cx="456.1" cy="268.1" r="40.5"/>
		<path class="st2" d="M66.7,200.4c-28.9,0-52.4,23.5-52.3,52.4c0,7.7,1.7,15.2,4.9,22.1l-13,32.2l32.2-10.3
			c24.3,15.6,56.7,8.5,72.3-15.8s8.5-56.7-15.8-72.3C86.6,203.3,76.7,200.4,66.7,200.4z"/>
		<path d="M0,312.9l15.3-38c-3.1-7-4.6-14.6-4.6-22.2c0-30.9,25.1-56,56-56s56,25.1,56,56c0,30.9-25.1,56-56,56
			c-10.1,0-20-2.7-28.7-7.9L0,312.9z M39,292.9l1.4,0.9c22.7,14.5,52.8,7.8,67.2-14.8c14.5-22.7,7.8-52.8-14.8-67.2
			c-22.7-14.5-52.8-7.8-67.2,14.8c-9,14-10.1,31.7-3.1,46.8l0.7,1.4l-10.6,26.5L39,292.9z"/>
		<circle class="st5" cx="66" cy="252.2" r="40.5"/>
		<path class="st2" d="M447.9,431.1v-22.5h-14.5c-1.1-4.4-2.9-8.6-5.3-12.5l10.7-10.7l-15.9-15.9l-10.9,10.9
			c-3.5-2-7.3-3.5-11.2-4.5v-14.5h-22.5V376c-3.9,1-7.7,2.5-11.2,4.5l-11-10.9l-15.9,15.9l10.7,10.6c-2.4,3.9-4.2,8.1-5.3,12.5
			h-14.5v22.5h14.5c1,3.9,2.5,7.7,4.5,11.2l-9.9,9.9l15.9,15.9l9.6-9.6c3.9,2.4,8.1,4.2,12.5,5.3v14.5h22.5v-14.5
			c4.4-1.1,8.6-2.9,12.5-5.3l9.6,9.6l15.9-15.9l-9.9-9.9c2-3.5,3.5-7.3,4.5-11.2H447.9z M389.5,438.7c-10.4,0-18.9-8.5-18.9-18.9
			s8.5-18.9,18.9-18.9c10.4,0,18.9,8.5,18.9,18.9l0,0C408.4,430.2,399.9,438.7,389.5,438.7C389.5,438.7,389.5,438.7,389.5,438.7
			L389.5,438.7z"/>
		<path d="M404.4,481.9h-29.8v-15.4c-2.8-0.9-5.6-2.1-8.2-3.5l-10.2,10.2l-21.1-21.1l10.6-10.6c-1.1-2.2-2-4.5-2.8-6.9h-15.4V405
			h15.4c0.9-2.8,2.1-5.6,3.5-8.2l-11.3-11.3l21.1-21.1l11.6,11.6c2.2-1.1,4.5-2,6.9-2.8v-15.4h29.8v15.5c2.4,0.8,4.6,1.7,6.9,2.8
			l11.6-11.6l21.1,21.1l-11.3,11.3c1.4,2.6,2.6,5.4,3.5,8.2h15.5v29.8h-15.4c-0.8,2.4-1.7,4.6-2.8,6.9l10.6,10.6l-21.1,21.1
			L412.6,463c-2.6,1.4-5.4,2.6-8.2,3.5L404.4,481.9z M381.9,474.6h15.2v-13.7l2.7-0.7c4-1,7.9-2.7,11.5-4.9l2.5-1.5l9.1,9.1
			l10.7-10.8l-9.3-9.3l1.4-2.4c1.8-3.2,3.2-6.7,4.2-10.3l0.7-2.7h13.7v-15.2h-13.7l-0.7-2.7c-1-4-2.7-7.9-4.9-11.4l-1.5-2.5
			l10.1-10.1l-10.8-10.8l-10.4,10.3l-2.4-1.4c-3.2-1.8-6.7-3.2-10.3-4.2l-2.7-0.7v-13.7h-15.2v13.7l-2.7,0.7
			c-3.6,0.9-7.1,2.3-10.3,4.2l-2.4,1.4l-10.3-10.3l-10.8,10.8l10.1,10.1l-1.5,2.4c-2.2,3.6-3.8,7.4-4.9,11.5l-0.7,2.8h-13.7v15.2
			h13.7l0.7,2.7c0.9,3.6,2.3,7,4.2,10.3l1.4,2.4l-9.3,9.3l10.8,10.8l9.1-9.1l2.5,1.5c3.6,2.2,7.4,3.8,11.5,4.9l2.7,0.7L381.9,474.6z
			 M389.5,442.3c-12.5,0-22.6-10.1-22.6-22.5s10.1-22.6,22.5-22.6c12.5,0,22.6,10.1,22.6,22.5c0,0,0,0,0,0
			C412,432.2,401.9,442.3,389.5,442.3L389.5,442.3z M389.5,404.5c-8.4,0-15.2,6.8-15.2,15.3s6.8,15.2,15.3,15.2
			c8.4,0,15.2-6.8,15.2-15.2C404.7,411.3,397.9,404.5,389.5,404.5L389.5,404.5z"/>
		<path class="st5" d="M389.5,455.7c-19.8,0-35.9-16.1-35.9-35.9s16.1-35.9,35.9-35.9s35.9,16.1,35.9,35.9
			C425.4,439.7,409.3,455.7,389.5,455.7z M389.5,391.3c-15.8,0-28.6,12.8-28.6,28.6s12.8,28.6,28.6,28.6s28.6-12.8,28.6-28.6l0,0
			C418.1,404.1,405.3,391.3,389.5,391.3z"/>
		<rect x="103.3" y="108.8" width="59.6" height="6.8"/>
		<rect x="103.3" y="123.1" width="59.6" height="6.8"/>
		<rect x="103.3" y="137.5" width="45.5" height="6.8"/>
		<rect x="385.9" y="102" width="59.6" height="6.8"/>
		<rect x="385.9" y="116.4" width="59.6" height="6.8"/>
		<rect x="385.9" y="130.8" width="45.5" height="6.8"/>
		<path class="st2" d="M448.9,286.9c0-1.6,0.6-3.1,1.8-4.1c2.6-2.1,6.4-2.1,9,0c2.3,2.1,2.4,5.6,0.4,7.9c-0.1,0.1-0.2,0.2-0.4,0.4
			c-2.6,2.1-6.4,2.1-9,0C449.6,290,448.9,288.5,448.9,286.9z M459.9,276.4h-9.2l-1.5-33.6h12.1L459.9,276.4z"/>
		<path class="st2" d="M60,260.2c-0.1-2.6,0.3-5.3,1.1-7.8c0.8-1.9,2-3.7,3.6-5c1.4-1.1,2.7-2.4,3.8-3.8c0.8-1.1,1.3-2.5,1.3-3.8
			c0-3.4-1.5-5.1-4.4-5.1c-1.3,0-2.5,0.5-3.3,1.5c-0.9,1.1-1.3,2.6-1.3,4H49.4c0-4.5,1.5-8,4.3-10.5s6.7-3.8,11.8-3.8
			c5,0,8.9,1.2,11.7,3.5s4.1,5.6,4.1,9.9c0,1.8-0.4,3.5-1.1,5.1c-0.9,1.8-2.1,3.4-3.6,4.7l-3.9,3.6c-1,0.9-1.8,2-2.3,3.3
			c-0.5,1.4-0.7,2.8-0.7,4.3L60,260.2z M58.6,270.5c0-1.6,0.6-3.1,1.8-4.1c2.6-2.1,6.4-2.1,9,0c2.3,2.1,2.4,5.6,0.4,7.9
			c-0.1,0.1-0.2,0.2-0.4,0.4c-2.6,2.1-6.4,2.1-9,0C59.2,273.6,58.5,272.1,58.6,270.5z"/>
		<circle class="st6" cx="343.5" cy="14.1" r="13"/>
		<path class="st5" d="M431.3,193.4c-9.2,0-16.7-7.5-16.7-16.7c0-9.2,7.5-16.7,16.7-16.7c9.2,0,16.7,7.5,16.7,16.7c0,0,0,0,0,0
			C448,185.9,440.5,193.4,431.3,193.4z M431.3,167.3c-5.2,0-9.4,4.2-9.4,9.4s4.2,9.4,9.4,9.4c5.2,0,9.4-4.2,9.4-9.4c0,0,0,0,0,0
			C440.7,171.5,436.5,167.4,431.3,167.3z"/>
		<path class="st7" d="M493.4,510.9c-9.2,0-16.7-7.5-16.7-16.7c0-9.2,7.5-16.7,16.7-16.7c9.2,0,16.7,7.5,16.7,16.7c0,0,0,0,0,0
			C510.1,503.4,502.6,510.9,493.4,510.9z M493.4,484.9c-5.2,0-9.4,4.2-9.4,9.4c0,5.2,4.2,9.4,9.4,9.4c5.2,0,9.4-4.2,9.4-9.4
			c0,0,0,0,0,0C502.8,489,498.6,484.9,493.4,484.9z"/>
		<path class="st5" d="M16.8,421.2c-9.2,0-16.7-7.5-16.7-16.7c0-9.2,7.5-16.7,16.7-16.7c9.2,0,16.7,7.5,16.7,16.7c0,0,0,0,0,0
			C33.4,413.7,26,421.2,16.8,421.2z M16.8,395.1c-5.2,0-9.4,4.2-9.4,9.4c0,5.2,4.2,9.4,9.4,9.4s9.4-4.2,9.4-9.4c0,0,0,0,0,0
			C26.2,399.3,22,395.1,16.8,395.1C16.8,395.1,16.8,395.1,16.8,395.1L16.8,395.1z"/>
		<circle class="st6" cx="13.6" cy="123.1" r="13"/>
		<rect x="489.4" y="94.2" transform="matrix(0.7071 -0.7071 0.7071 0.7071 75.3995 377.4955)" class="st8" width="8" height="7"/>
		<rect x="500" y="104.8" transform="matrix(0.7071 -0.7071 0.7071 0.7071 71.0279 388.0613)" class="st8" width="8" height="7"/>
		<rect x="500.5" y="93.7" transform="matrix(0.7071 -0.7071 0.7071 0.7071 78.4995 384.9713)" class="st8" width="7" height="8"/>
		<rect x="489.9" y="104.3" transform="matrix(0.7071 -0.7071 0.7071 0.7071 67.9337 380.5855)" class="st8" width="7" height="8"/>
		<rect x="139.5" y="3.9" transform="matrix(0.7071 -0.7071 0.7071 0.7071 36.7984 103.5856)" class="st0" width="8" height="7"/>
		<rect x="150" y="14.5" transform="matrix(0.7071 -0.7071 0.7071 0.7071 32.4196 114.1485)" class="st0" width="8" height="7"/>
		<rect x="150.5" y="3.4" transform="matrix(0.7071 -0.7071 0.7071 0.7071 39.8884 111.0514)" class="st0" width="7" height="8"/>
		<rect x="140" y="14" transform="matrix(0.7071 -0.7071 0.7071 0.7071 29.3296 106.6826)" class="st0" width="7" height="8"/>
		
			<rect x="102.5" y="364.5" transform="matrix(0.7071 -0.7071 0.7071 0.7071 -229.0025 183.0719)" class="st8" width="8" height="7"/>
		<rect x="113.1" y="375" transform="matrix(0.7071 -0.7071 0.7071 0.7071 -233.3713 193.6448)" class="st8" width="8" height="7"/>
		<rect x="113.6" y="364" transform="matrix(0.7071 -0.7071 0.7071 0.7071 -225.9025 190.5477)" class="st8" width="7" height="8"/>
		<rect x="103" y="374.6" transform="matrix(0.7071 -0.7071 0.7071 0.7071 -236.4713 186.169)" class="st8" width="7" height="8"/>
		<rect x="478.8" y="345" transform="matrix(0.7071 -0.7071 0.7071 0.7071 -105.0033 443.4667)" class="st0" width="8" height="7"/>
		
			<rect x="489.4" y="355.6" transform="matrix(0.7071 -0.7071 0.7071 0.7071 -109.375 454.0326)" class="st0" width="8" height="7"/>
		
			<rect x="489.9" y="344.5" transform="matrix(0.7071 -0.7071 0.7071 0.7071 -101.9062 450.9355)" class="st0" width="7" height="8"/>
		
			<rect x="479.3" y="355.1" transform="matrix(0.7071 -0.7071 0.7071 0.7071 -112.4721 446.5638)" class="st0" width="7" height="8"/>
		
			<rect x="97.2" y="490.7" transform="matrix(0.7071 -0.7071 0.7071 0.7071 -319.8274 216.3211)" class="st8" width="8" height="7"/>
		
			<rect x="107.8" y="501.3" transform="matrix(0.7071 -0.7071 0.7071 0.7071 -324.2032 226.8969)" class="st8" width="8" height="7"/>
		
			<rect x="108.3" y="490.3" transform="matrix(0.7071 -0.7071 0.7071 0.7071 -316.7345 223.7998)" class="st8" width="7" height="8"/>
		
			<rect x="97.7" y="500.8" transform="matrix(0.7071 -0.7071 0.7071 0.7071 -327.3032 219.4211)" class="st8" width="7" height="8"/>
	</g>
</g>
</svg>
