<?xml version="1.0" encoding="utf-8"?>
<!-- Generator: Adobe Illustrator 25.2.3, SVG Export Plug-In . SVG Version: 6.00 Build 0)  -->
<svg version="1.1" id="Layer_1" xmlns="http://www.w3.org/2000/svg" xmlns:xlink="http://www.w3.org/1999/xlink" x="0px" y="0px"
	 viewBox="0 0 512 512" style="enable-background:new 0 0 512 512;" xml:space="preserve">
<style type="text/css">
	.st0{fill:#E0E0E0;}
	.st1{fill:#E2E2E2;}
	.st2{fill:#FFFFFF;}
	.st3{fill:#4979FE;}
	.st4{fill:#FFCDAB;}
	.st5{fill:#08C865;}
	.st6{fill:#F5EA0A;}
	.st7{fill:#FEFEFE;}
	.st8{fill:#002985;}
	.st9{fill:#4978FA;}
	.st10{fill:#FE566A;}
	.st11{fill:#4D4D4D;}
</style>
<g id="Layer_2_1_">
	<g id="Layer_1-2">
		<path class="st0" d="M100.6,98.9H407c10.1,0,18.3,8.2,18.3,18.3v210.8c0,10.1-8.2,18.3-18.3,18.3H100.6
			c-10.1,0-18.3-8.2-18.3-18.3V117.1C82.3,107,90.5,98.9,100.6,98.9z"/>
		<path class="st1" d="M284.6,98.9H407c10.1,0,18.2,8.2,18.2,18.2v17"/>
		<path d="M428.2,134.1h-6v-17c0-8.4-6.8-15.2-15.2-15.2H284.6v-6H407c11.7,0,21.2,9.5,21.2,21.2V134.1z"/>
		<path class="st1" d="M425.2,201v127c0,10.1-8.2,18.2-18.2,18.2H100.6c-10.1,0-18.2-8.2-18.2-18.2V117.1c0-10.1,8.2-18.2,18.2-18.2
			H119"/>
		<path d="M407,349.2H100.6c-11.7,0-21.2-9.5-21.2-21.2V117.1c0-11.7,9.5-21.2,21.2-21.2H119v6h-18.4c-8.4,0-15.2,6.8-15.2,15.2
			v210.8c0,8.4,6.8,15.2,15.2,15.2H407c8.4,0,15.2-6.8,15.2-15.2v-127h6v127C428.2,339.7,418.7,349.2,407,349.2z"/>
		<path class="st2" d="M396.5,298.7H111c-5,0-9.1-3.3-9.1-7.4V123.2c0-4.1,4.1-7.4,9.1-7.4h285.5c5,0,9.1,3.3,9.1,7.4v168.1
			C405.6,295.4,401.5,298.7,396.5,298.7z"/>
		<rect x="226.8" y="348.7" class="st1" width="59.3" height="35.9"/>
		<path d="M289.1,387.6h-65.3v-41.9h65.3V387.6z M229.8,381.6h53.3v-29.9h-53.3V381.6z"/>
		<path class="st2" d="M227.8,384.6h61.3c7,0,12.7,5.7,12.7,12.7l0,0v5.2l0,0h-86.8l0,0v-5.2C215.1,390.2,220.8,384.6,227.8,384.6z"
			/>
		<path d="M304.8,405.5h-92.8v-8.2c0-8.7,7-15.7,15.7-15.7h61.3c8.7,0,15.7,7,15.7,15.7L304.8,405.5z M218.1,399.5h80.8v-2.2
			c0-5.4-4.4-9.7-9.7-9.7h-61.3c-5.4,0-9.7,4.4-9.7,9.7L218.1,399.5z"/>
		<path class="st3" d="M195.9,327.9h-87c-31.8,0-57.5,25.7-57.5,57.5c0,0,0,0,0,0.1v52.3c0,14.8,12,26.7,26.7,26.7h148.6
			c14.8,0,26.7-12,26.7-26.7v-52.3C253.4,353.7,227.7,327.9,195.9,327.9C195.9,327.9,195.9,327.9,195.9,327.9z"/>
		<path class="st4" d="M159.9,355.6h-13.4c-19.1,0-32.4-15.5-32.4-34.5l2.4-32H191l1.3,32C192.3,340.1,178.9,355.6,159.9,355.6z"/>
		<path d="M54.4,436.1h-6v-47.4c0-35.3,28.6-63.8,63.9-63.9h0.3l-0.4-18l6-0.1l0.5,24.1h-6.4c-32,0-57.8,25.9-57.9,57.9V436.1z"/>
		<path d="M256.4,436.1h-6v-47.4c0-31.9-25.9-57.8-57.8-57.9l-6.8,0.3v-24.8h6v18.5h0.8c35.3,0,63.8,28.6,63.9,63.9L256.4,436.1z"/>
		<path d="M150.1,203.4h6.1c28.9,0,52.3,23.4,52.3,52.3v19.9c0,28.9-23.4,52.3-52.3,52.3h-6.1c-28.9,0-52.3-23.4-52.3-52.3v-19.9
			C97.8,226.8,121.2,203.4,150.1,203.4z"/>
		<path d="M216.9,142.9h-84.7c-10.5,0-19-8.5-19-19V68.8c0-10.5,8.5-19,19-19h84.7c10.5,0,19,8.5,19,19v55.1
			C235.9,134.4,227.4,142.9,216.9,142.9L216.9,142.9z M132.2,55.8c-7.2,0-13,5.8-13,13v55.1c0,7.2,5.8,13,13,13h84.7
			c7.2,0,13-5.8,13-13V68.8c0-7.2-5.8-13-13-13L132.2,55.8z"/>
		<path class="st5" d="M132.8,58h83.4c5.4,0,9.8,4.4,9.8,9.8V125c0,5.4-4.4,9.8-9.8,9.8h-83.4c-5.4,0-9.8-4.4-9.8-9.8V67.7
			C123.1,62.3,127.4,58,132.8,58z"/>
		<path d="M255.7,119.8h-25.7V72.9h25.7V119.8z M235.9,113.8h13.7V78.9h-13.8L235.9,113.8z"/>
		<path d="M290.4,145.6l-40.7-27V74.1l40.7-27V145.6z M255.7,115.5l28.7,19V58.3l-28.7,19V115.5z"/>
		<path d="M488.5,77.5H430c-4.5,0-8.1-3.6-8.1-8.1V36.1c0-4.5,3.6-8.1,8.1-8.1h58.4c4.5,0,8.1,3.6,8.1,8.1v33.2
			C496.6,73.8,493,77.4,488.5,77.5C488.5,77.5,488.5,77.5,488.5,77.5z M430,34c-1.2,0-2.1,0.9-2.1,2.1v33.2c0,1.2,0.9,2.1,2.1,2.1
			h58.4c1.2,0,2.1-0.9,2.1-2.1V36.1c0-1.2-0.9-2.1-2.1-2.1L430,34z"/>
		<rect x="433.1" y="36.6" class="st3" width="54.8" height="30.9"/>
		<polygon points="459.2,62 424.6,35.9 428.2,31.1 459.2,54.5 488.9,32 492.5,36.8 		"/>
		<polygon class="st2" points="386.1,136.9 386.1,155.1 386.1,156.7 358.7,179.1 386.1,179.4 386.1,198.2 486.6,198.2 486.6,136.9 
					"/>
		<path d="M489.7,201.2H383.1v-18.8l-32.7-0.4l32.7-26.7v-21.4h106.6V201.2z M389.1,195.2h94.6v-55.3h-94.6v18.3L367,176.2l22.1,0.3
			L389.1,195.2z"/>
		<rect x="397.8" y="144.9" class="st6" width="80" height="42.9"/>
		<rect x="410.2" y="153.1" class="st2" width="49" height="7.5"/>
		<rect x="410.2" y="171" class="st2" width="30.8" height="7.5"/>
		<rect x="212.5" y="164.5" class="st5" width="49" height="7.5"/>
		<rect x="212.5" y="182.4" class="st5" width="30.8" height="7.5"/>
		<path class="st6" d="M379.1,383.1h3.7c11.4,0,20.6,9.2,20.6,20.6v37.4c0,11.4-9.2,20.6-20.6,20.6h-3.7c-11.4,0-20.6-9.2-20.6-20.6
			v-37.4C358.5,392.4,367.7,383.1,379.1,383.1z"/>
		<path d="M381,474.8c-21.4,0-38.7-17.3-38.7-38.7v-33.4c0.3-21.4,18-38.5,39.4-38.1c20.9,0.3,37.8,17.2,38.1,38.1v33.4
			C419.7,457.4,402.4,474.8,381,474.8z M381,369.9c-18.1,0-32.7,14.7-32.7,32.7v33.4c0.3,18.1,15.2,32.5,33.3,32.2
			c17.6-0.3,31.9-14.5,32.2-32.2v-33.4C413.7,384.6,399.1,370,381,369.9z"/>
		<path d="M381,422.4c-17.4,0-32.7-11.6-37.3-28.4l-0.2-0.8l0.2-0.8c5.7-20.6,27.1-32.7,47.7-27c13.1,3.6,23.4,13.9,27,27l0.2,0.8
			l-0.2,0.8C413.7,410.7,398.4,422.3,381,422.4z M349.7,393.2c5.3,17.3,23.5,27.1,40.8,21.8c10.4-3.2,18.6-11.3,21.8-21.8
			c-5.3-17.3-23.5-27.1-40.8-21.8C361,374.5,352.8,382.7,349.7,393.2z"/>
		<rect x="378" y="366.9" width="6" height="19"/>
		<rect x="378" y="400.4" width="6" height="19"/>
		<path d="M380.9,404.5c-4.4,0-8-3.6-8-8v-5.6c0-4.4,3.6-8,8-8s8,3.6,8,8v5.6C388.9,400.9,385.3,404.5,380.9,404.5z M380.9,388.9
			c-1.1,0-2,0.9-2,2v5.6c0,1.1,0.9,2,2,2s2-0.9,2-2v-5.6C382.9,389.8,382,388.9,380.9,388.9C380.9,388.9,380.9,388.9,380.9,388.9
			L380.9,388.9z"/>
		<polygon class="st7" points="160.5,77 193.3,96.4 160.5,115.9 		"/>
		<rect x="239.2" y="83.8" class="st5" width="7.7" height="25.2"/>
		<polygon class="st5" points="280.4,124 258.5,109.4 258.5,83.3 280.4,68.8 		"/>
		<circle class="st8" cx="254.9" cy="322.7" r="6.6"/>
		<circle class="st5" cx="376.3" cy="56.7" r="10.7"/>
		<path class="st3" d="M471.6,508.5c-7.6,0-13.7-6.1-13.7-13.7c0-7.6,6.1-13.7,13.7-13.7c7.6,0,13.7,6.1,13.7,13.7c0,0,0,0,0,0
			C485.3,502.4,479.2,508.5,471.6,508.5z M471.6,487.1c-4.3,0-7.7,3.5-7.7,7.7s3.5,7.7,7.7,7.7c4.3,0,7.7-3.5,7.7-7.7c0,0,0,0,0,0
			C479.4,490.6,475.9,487.1,471.6,487.1z"/>
		<path class="st3" d="M13.7,371.3c-7.6,0-13.7-6.1-13.7-13.7c0-7.6,6.1-13.7,13.7-13.7s13.7,6.1,13.7,13.7
			C27.4,365.2,21.3,371.3,13.7,371.3z M13.7,349.9c-4.3,0-7.7,3.5-7.7,7.7s3.5,7.7,7.7,7.7s7.7-3.5,7.7-7.7S18,349.9,13.7,349.9
			C13.7,349.9,13.7,349.9,13.7,349.9z"/>
		<circle class="st6" cx="10.7" cy="136.9" r="10.7"/>
		<rect x="464.7" y="98.4" transform="matrix(0.7071 -0.7071 0.7071 0.7071 65.4192 360.5453)" width="6.5" height="5.7"/>
		<rect x="473.3" y="107.1" transform="matrix(0.7071 -0.7071 0.7071 0.7071 61.8166 369.2279)" width="6.6" height="5.7"/>
		<rect x="473.7" y="98" transform="matrix(0.7071 -0.7071 0.7071 0.7071 67.9642 366.6858)" width="5.7" height="6.6"/>
		<rect x="465" y="106.7" transform="matrix(0.7071 -0.7071 0.7071 0.7071 59.2746 363.0803)" width="5.7" height="6.6"/>
		<rect x="120.3" y="3" transform="matrix(0.7071 -0.7071 0.7071 0.7071 32.0586 89.0575)" class="st9" width="6.6" height="5.7"/>
		<rect x="129" y="11.6" transform="matrix(0.7071 -0.7071 0.7071 0.7071 28.466 97.7501)" class="st9" width="6.6" height="5.7"/>
		
			<rect x="129.4" y="2.5" transform="matrix(0.7071 -0.7071 0.7071 0.7071 34.6136 95.2022)" class="st9" width="5.7" height="6.6"/>
		
			<rect x="120.7" y="11.2" transform="matrix(0.7071 -0.7071 0.7071 0.7071 25.921 91.5954)" class="st9" width="5.7" height="6.6"/>
		
			<rect x="32" y="230.5" transform="matrix(0.7071 -0.7071 0.7071 0.7071 -154.6686 93.322)" class="st10" width="6.6" height="5.7"/>
		
			<rect x="40.7" y="239.2" transform="matrix(0.7071 -0.7071 0.7071 0.7071 -158.2641 102.0217)" class="st10" width="6.6" height="5.7"/>
		
			<rect x="41.1" y="230.1" transform="matrix(0.7071 -0.7071 0.7071 0.7071 -152.1165 99.4737)" class="st10" width="5.7" height="6.6"/>
		
			<rect x="32.5" y="238.8" transform="matrix(0.7071 -0.7071 0.7071 0.7071 -160.8062 95.8741)" class="st10" width="5.7" height="6.6"/>
		
			<rect x="470.2" y="278.8" transform="matrix(0.7071 -0.7071 0.7071 0.7071 -60.4832 417.2628)" class="st10" width="6.5" height="5.7"/>
		
			<rect x="478.9" y="287.5" transform="matrix(0.7071 -0.7071 0.7071 0.7071 -64.0829 425.9524)" class="st10" width="6.5" height="5.7"/>
		
			<rect x="479.3" y="278.4" transform="matrix(0.7071 -0.7071 0.7071 0.7071 -57.9353 423.4104)" class="st10" width="5.7" height="6.5"/>
		
			<rect x="470.6" y="287.1" transform="matrix(0.7071 -0.7071 0.7071 0.7071 -66.6379 419.8078)" class="st10" width="5.7" height="6.5"/>
		<rect x="474.5" y="378.5" class="st6" width="6.6" height="5.7"/>
		<rect x="474.5" y="390.8" class="st6" width="6.6" height="5.7"/>
		<rect x="481.1" y="384.3" class="st6" width="5.7" height="6.5"/>
		<rect x="468.8" y="384.3" class="st6" width="5.7" height="6.5"/>
		
			<rect x="251.9" y="494.6" transform="matrix(0.7071 -0.7071 0.7071 0.7071 -277.033 326.1613)" class="st9" width="6.5" height="5.7"/>
		
			<rect x="260.6" y="503.3" transform="matrix(0.7071 -0.7071 0.7071 0.7071 -280.6256 334.8539)" class="st9" width="6.5" height="5.7"/>
		
			<rect x="261" y="494.2" transform="matrix(0.7071 -0.7071 0.7071 0.7071 -274.488 332.3018)" class="st9" width="5.7" height="6.5"/>
		
			<rect x="252.3" y="502.9" transform="matrix(0.7071 -0.7071 0.7071 0.7071 -283.1735 328.7063)" class="st9" width="5.7" height="6.5"/>
		<path class="st3" d="M328.7,212.5h-30.5c-16.5,0-29.9,13.4-29.9,29.9l0,0v22.4c0,4.8,3.9,8.7,8.7,8.7h72.9c4.8,0,8.7-3.9,8.7-8.7
			v0v-22.3C358.6,225.9,345.2,212.5,328.7,212.5z"/>
		<path class="st4" d="M316.7,224.8h-6c-8.5,0-14.5-6.9-14.5-15.4l1.1-14.3h33.3l0.6,14.3C331.2,217.9,325.3,224.8,316.7,224.8z"/>
		<path d="M270.3,260.8h-4.1v-21.2c0-15.9,12.8-28.9,28.7-29.3l-0.2-7.3l4.1-0.1l0.2,11.5h-3.6c-13.9,0-25.1,11.3-25.1,25.1V260.8z"
			/>
		<path d="M360.7,260.9h-4.1v-21.2c0-13.9-11.2-25.2-25.1-25.2l-3.8,0.2v-11.8h4.1v7.5c16,0.2,28.9,13.3,28.9,29.3V260.9z"/>
		<polygon class="st2" points="324.2,267.6 313.8,277.3 303.3,268 309.9,220.7 317.6,220.7 		"/>
		<path d="M313.8,280.1l-12.7-11.3l7-50.1h11.3l7,49.7L313.8,280.1z M305.5,267.1l8.2,7.4l8.3-7.7l-6.2-44h-4.1L305.5,267.1z"/>
		<polygon class="st10" points="312.9,223.7 313.9,223.7 319.4,267.4 313.7,272.1 308.1,267.6 		"/>
		<path class="st4" d="M313.5,212.3L313.5,212.3c-10.7,0-19.4-8.7-19.4-19.4l0,0v-19.4H333v19.4C333,203.6,324.3,212.3,313.5,212.3
			L313.5,212.3z"/>
		<path d="M313.5,214.4c-11.9,0-21.5-9.6-21.5-21.5v-21.5h43v21.5C335,204.7,325.4,214.4,313.5,214.4z M296.2,175.5v17.4
			c0,9.6,7.8,17.4,17.4,17.4s17.4-7.8,17.4-17.4c0,0,0,0,0,0v-17.4H296.2z"/>
		<path class="st11" d="M333,180.7h-29.3c-5.3,0-9.6-4.3-9.6-9.6V161h29.3c5.3,0,9.6,4.3,9.6,9.6l0,0L333,180.7z"/>
		<path d="M335,182.7h-31.4c-6.4,0-11.6-5.2-11.6-11.6v-12.2h31.4c6.4,0,11.6,5.2,11.6,11.6V182.7z M296.2,163v8.1
			c0,4.1,3.4,7.5,7.5,7.5h27.2v-8.1c0-4.1-3.4-7.5-7.5-7.5H296.2z"/>
		<path d="M97.1,197.9h77.1c18.9,0,34.3,15.3,34.3,34.3v31l0,0h-80.7c-17,0-30.7-13.8-30.7-30.7l0,0V197.9L97.1,197.9z"/>
	</g>
</g>
</svg>
