<?xml version="1.0" encoding="utf-8"?>
<!-- Generator: Adobe Illustrator 25.2.3, SVG Export Plug-In . SVG Version: 6.00 Build 0)  -->
<svg version="1.1" id="Layer_1" xmlns="http://www.w3.org/2000/svg" xmlns:xlink="http://www.w3.org/1999/xlink" x="0px" y="0px"
	 viewBox="0 0 512 512" style="enable-background:new 0 0 512 512;" xml:space="preserve">
<style type="text/css">
	.st0{fill:#EABE04;}
	.st1{fill:#4979FE;}
	.st2{fill:#08C865;}
	.st3{fill:#08BC59;}
	.st4{fill:#EE572F;}
	.st5{fill:#333940;}
	.st6{fill:#545965;}
</style>
<g id="Layer_2_1_">
	<g id="Layer_1-2">
		<path class="st0" d="M390.1,430v-37h-23.9c-1.9-7.2-4.8-14.2-8.7-20.5l17.6-17.6l-26.2-26.2l-18,18c-5.8-3.3-12-5.8-18.4-7.5
			v-23.9h-37v23.9c-6.4,1.6-12.6,4.2-18.4,7.5l-18-18l-26.2,26.1l17.6,17.6c-3.9,6.4-6.9,13.3-8.7,20.5h-23.9v37h23.9
			c1.7,6.4,4.2,12.6,7.5,18.4l-16.3,16.3l26.2,26.2l15.9-15.9c6.4,3.9,13.3,6.9,20.5,8.7v23.9h37v-23.9c7.2-1.8,14.2-4.8,20.5-8.7
			l15.8,15.8l26.2-26.1l-16.3-16.3c3.3-5.8,5.8-12,7.5-18.4L390.1,430z M297.9,442.2c-17,2.2-32.7-9.8-34.9-26.8
			c-2.2-17,9.8-32.7,26.8-34.9c17-2.2,32.7,9.8,34.9,26.8c0.4,2.7,0.4,5.4,0,8.1C322.9,429.4,311.9,440.4,297.9,442.2z"/>
		<path d="M316.9,512.2h-46v-25c-5.3-1.6-10.5-3.8-15.3-6.5L239,497.2l-32.5-32.5l17.1-17.1c-2.2-4.2-4-8.6-5.3-13.1h-25v-46h25
			c1.6-5.3,3.8-10.5,6.5-15.3l-18.3-18.3l32.6-32.5l18.8,18.8c4.2-2.2,8.6-4,13.1-5.3v-25h46v25c4.5,1.4,8.9,3.2,13.1,5.3l18.8-18.8
			l32.5,32.5L363,373.2c2.7,4.9,4.9,10,6.5,15.3h25v46h-25c-1.4,4.5-3.2,8.9-5.3,13.1l17.1,17.1l-32.5,32.5l-16.6-16.6
			c-4.9,2.7-10,4.9-15.3,6.5L316.9,512.2z M279.9,503.2h28.1v-22.9l3.4-0.9c6.8-1.7,13.3-4.5,19.3-8.2l3-1.9l15.2,15.2l19.9-19.9
			l-15.6-15.6l1.7-3c3.1-5.4,5.5-11.2,7-17.3l0.9-3.4h23v-28.1h-23l-0.9-3.4c-1.7-6.8-4.5-13.3-8.2-19.3l-1.9-3l16.9-16.9L348.8,335
			l-17.3,17.3l-3-1.7c-5.4-3.1-11.2-5.5-17.3-7l-3.4-0.9v-22.9h-28.1v22.9l-3.4,0.9c-6,1.5-11.9,3.9-17.3,7l-3,1.7L239,335
			l-19.9,19.9l16.9,16.9l-1.9,3c-3.7,6-6.5,12.5-8.2,19.3l-0.9,3.4h-23v28.1h23l0.9,3.3c1.6,6,3.9,11.9,7,17.3l1.7,3l-15.6,15.6
			l19.9,19.9l15.2-15.2l3,1.9c6,3.7,12.5,6.4,19.3,8.2l3.4,0.9L279.9,503.2z M293.9,446.9c-19.7,0-35.6-15.9-35.6-35.6
			c0-1.5,0.1-3.1,0.3-4.6c2.5-19.5,20.4-33.2,39.9-30.7s33.2,20.4,30.7,39.9c-2.1,16-14.7,28.6-30.7,30.7
			C296.9,446.8,295.4,446.9,293.9,446.9L293.9,446.9z M293.9,384.7c-13.4,0-24.7,9.9-26.4,23.1c-1.9,14.6,8.4,28,23,29.9
			c2.3,0.3,4.6,0.3,6.9,0l0,0c14.6-1.9,24.9-15.2,23-29.8C318.6,394.6,307.3,384.7,293.9,384.7L293.9,384.7z"/>
		<circle class="st1" cx="27.9" cy="28.8" r="21.5"/>
		<path d="M25.9,51.7C11.6,51.7,0,40.1,0,25.8S11.6-0.2,25.9-0.2c14.3,0,25.9,11.6,25.9,25.9c0,0,0,0,0,0
			C51.8,40.1,40.2,51.7,25.9,51.7z M25.9,8.8c-9.4,0-17,7.6-17,17s7.6,17,17,17s17-7.6,17-17l0,0C42.9,16.4,35.3,8.8,25.9,8.8z"/>
		<circle class="st1" cx="468.7" cy="26.7" r="21.5"/>
		<path d="M468.7,52.6c-14.3,0-25.9-11.6-25.9-25.9c0-14.3,11.6-25.9,25.9-25.9s25.9,11.6,25.9,25.9c0,0,0,0,0,0
			C494.6,40.9,483,52.5,468.7,52.6z M468.7,9.7c-9.4,0-17,7.6-17,17s7.6,17,17,17s17-7.6,17-17S478.1,9.7,468.7,9.7z"/>
		<circle class="st2" cx="121.7" cy="148.6" r="35.8"/>
		<path d="M121.7,188.9c-22.2,0-40.2-18-40.2-40.2s18-40.2,40.2-40.2s40.2,18,40.2,40.2C161.9,170.8,143.9,188.8,121.7,188.9z
			 M121.7,117.4c-17.3,0-31.3,14-31.2,31.3c0,17.3,14,31.3,31.3,31.2c17.3,0,31.3-14,31.2-31.3C153,131.3,139,117.3,121.7,117.4
			L121.7,117.4z"/>
		<rect x="132.5" y="94.5" class="st3" width="85.3" height="108.3"/>
		<path d="M222.3,207.2h-94.2V90h94.2L222.3,207.2z M137,198.3h76.4V98.9H137V198.3z"/>
		<path class="st4" d="M199.2,231.9h17c4.2,0,7.6,3.4,7.6,7.6v15.2c0,4.2-3.4,7.6-7.6,7.6h-17c-4.2,0-7.6-3.4-7.6-7.6v-15.2
			C191.6,235.3,195,231.9,199.2,231.9z"/>
		<path d="M212.5,266.7h-9.5c-8.7,0-15.8-7.1-15.8-15.8v-7.7c0-8.7,7.1-15.8,15.8-15.8h9.5c8.7,0,15.8,7.1,15.8,15.8v7.7
			C228.2,259.7,221.2,266.7,212.5,266.7z M202.9,236.3c-3.8,0-6.9,3.1-6.9,6.9v7.7c0,3.8,3.1,6.8,6.9,6.8h9.5c3.8,0,6.9-3.1,6.9-6.8
			v0v-7.7c0-3.8-3.1-6.9-6.9-6.9L202.9,236.3z"/>
		<polygon class="st2" points="212,206.3 351.7,257.1 351.7,40.1 212,95.2 		"/>
		<path d="M356.2,263.5l-148.6-54.1V92.2l148.6-58.7V263.5z M216.5,203.2l130.7,47.6V46.6L216.5,98.3V203.2z"/>
		<path class="st5" d="M163.6,208.4h22.2c6.1,0,11.1,5,11.1,11.1v94.2c0,6.1-5,11.1-11.1,11.1h-22.2c-6.1,0-11.1-5-11.1-11.1v-94.2
			C152.5,213.4,157.5,208.4,163.6,208.4z"/>
		<path d="M180.4,329.3h-11.3c-11.6,0-21-9.4-21-21v-83.4c0-11.6,9.4-21,21-21h11.3c11.6,0,21,9.4,21,21v83.3
			C201.4,319.9,192,329.3,180.4,329.3z M169.1,212.9c-6.7,0-12.1,5.4-12.1,12.1v83.3c0,6.7,5.4,12.1,12.1,12.1h11.3
			c6.7,0,12.1-5.4,12.1-12.1v-83.3c0-6.7-5.4-12.1-12.1-12.1H169.1z"/>
		<path class="st3" d="M358.7,21.2h14.1c3.9,0,7,3.1,7,7V269c0,3.9-3.1,7-7,7h-14.1c-3.9,0-7-3.1-7-7V28.2
			C351.7,24.3,354.9,21.2,358.7,21.2z"/>
		<path d="M369.3,280.5h-7.1c-8.2,0-14.9-6.7-14.9-14.9V31.6c0-8.2,6.7-14.9,14.9-14.9h7.1c8.2,0,14.9,6.7,14.9,14.9v233.9
			C384.2,273.8,377.6,280.5,369.3,280.5z M362.2,25.7c-3.3,0-6,2.7-6,6v233.9c0,3.3,2.7,6,6,6h7.1c3.3,0,6-2.7,6-6V31.6
			c0-3.3-2.7-6-6-6L362.2,25.7z"/>
		<rect x="140.8" y="203.8" class="st6" width="67.4" height="28.1"/>
		<path d="M212.7,236.3h-76.4v-37h76.4V236.3z M145.3,227.4h58.5v-19.2h-58.5V227.4z"/>
		<path d="M197.2,116.3h-44.1c-2.5,0-4.5-2-4.5-4.5s2-4.5,4.5-4.5l0,0h44.1c2.5,0,4.5,2,4.5,4.5S199.7,116.3,197.2,116.3z"/>
		<path d="M197.2,134.1h-44.1c-2.5,0-4.5-2-4.5-4.5c0-2.5,2-4.5,4.5-4.5l0,0h44.1c2.5,0,4.5,2,4.5,4.5
			C201.7,132.1,199.7,134.1,197.2,134.1z"/>
		<path d="M197.2,152h-44.1c-2.5-0.1-4.4-2.2-4.3-4.7c0.1-2.3,2-4.2,4.3-4.3h44.1c2.5-0.1,4.6,1.8,4.7,4.3c0.1,2.5-1.8,4.6-4.3,4.7
			C197.5,152,197.4,152,197.2,152z"/>
		<path d="M197.2,169.9h-44.1c-2.5,0-4.5-2-4.5-4.5s2-4.5,4.5-4.5l0,0h44.1c2.5,0,4.5,2,4.5,4.5S199.7,169.9,197.2,169.9z"/>
		<path d="M197.2,187.7h-44.1c-2.5-0.1-4.4-2.2-4.3-4.7c0.1-2.3,2-4.2,4.3-4.3h44.1c2.5-0.1,4.6,1.8,4.7,4.3
			c0.1,2.5-1.8,4.6-4.3,4.7C197.5,187.7,197.4,187.7,197.2,187.7z"/>
		<path d="M328.7,210.6c-2.5,0-4.5-2-4.5-4.5V93.7c0.1-2.5,2.2-4.4,4.7-4.3c2.3,0.1,4.2,2,4.3,4.3v112.4
			C333.2,208.6,331.2,210.6,328.7,210.6L328.7,210.6z"/>
		<path d="M310,191c-2.5,0-4.5-2-4.5-4.5l0,0v-73.1c0-2.5,2-4.5,4.5-4.5s4.5,2,4.5,4.5v73.1C314.5,188.9,312.5,191,310,191L310,191z
			"/>
		<path d="M291.3,178.9c-2.5,0-4.5-2-4.5-4.5l0,0v-48.9c0-2.5,2-4.5,4.5-4.5s4.5,2,4.5,4.5v48.9
			C295.7,176.9,293.7,178.9,291.3,178.9z"/>
		<path d="M175.2,454.9H58c-2.5,0-4.5-2-4.5-4.5l0,0V257.9c0-2.5,2-4.5,4.5-4.5c2.5,0,4.5,2,4.5,4.5c0,0,0,0,0,0V446h112.7
			c2.5,0.1,4.4,2.2,4.3,4.7C179.3,453,177.5,454.8,175.2,454.9L175.2,454.9z"/>
		<path d="M474.8,454.9h-61.3c-2.5-0.1-4.4-2.2-4.3-4.7c0.1-2.3,2-4.2,4.3-4.3h56.8V87.2h-90.5c-2.5,0-4.5-2-4.5-4.5s2-4.5,4.5-4.5
			h95c2.5,0,4.5,2,4.5,4.5l0,0v367.7C479.3,452.9,477.3,454.9,474.8,454.9L474.8,454.9z"/>
		<circle cx="501.3" cy="202.7" r="10.7"/>
		<circle cx="12.9" cy="501.1" r="10.7"/>
		<circle cx="475.3" cy="501.1" r="10.7"/>
		<circle cx="249.4" cy="276" r="10.7"/>
		<circle cx="96.7" cy="388.2" r="10.7"/>
		<circle cx="153.1" cy="53.2" r="10.7"/>
		<circle cx="416.6" cy="53.2" r="10.7"/>
	</g>
</g>
</svg>
